<svg xmlns:xlink="http://www.w3.org/1999/xlink" xmlns="http://www.w3.org/2000/svg" width="202" height="40" viewBox="0 0 202 40" fill="none">
<g clip-path="url(#clip0_102_1642)">
<path d="M163.531 20.0507C163.202 20.2085 163.256 20.7408 163.584 20.8451C164.134 21.0563 164.627 21.3747 165.122 21.7465C166.55 22.9662 166.878 24.5578 166.714 26.307C166.439 29.7549 163.805 31.5042 160.676 31.7718C159.138 31.8789 157.657 31.8789 156.119 31.8789C153.375 31.8789 150.628 31.8789 147.83 31.8789C147.555 31.8789 147.391 31.6676 147.391 31.4535V10.2394C147.391 9.97465 147.612 9.81409 147.83 9.81409C149.585 9.81409 155.901 9.81409 159.195 9.81409C161.446 9.81409 163.366 10.4507 164.904 12.1493C166.442 13.9521 166.771 17.7718 164.465 19.4704C164.188 19.7324 163.859 19.893 163.531 20.0507ZM152.933 27.5296C152.987 27.5296 153.043 27.5831 153.097 27.5831C154.964 27.5831 156.83 27.5831 158.753 27.5296C159.192 27.5296 159.685 27.3183 160.07 27.0535C161.004 26.4704 161.169 25.5155 160.948 24.5606C160.727 23.4986 160.013 22.8113 158.971 22.7578C156.994 22.6507 155.017 22.7042 152.987 22.6507C152.987 22.6507 152.933 22.7042 152.876 22.7042C152.933 24.2958 152.933 25.8873 152.933 27.5296ZM152.933 14.5352V18.5127C152.933 18.7775 153.154 18.938 153.372 18.938C154.964 18.938 156.612 18.938 158.204 18.938C158.424 18.938 158.589 18.8845 158.807 18.831C160.07 18.4592 160.727 17.4507 160.563 16.0732C160.452 14.9606 159.464 14.1099 158.257 14.1099C157.379 14.1099 156.445 14.1099 155.567 14.1099C154.853 14.1099 154.139 14.1099 153.426 14.1099C153.154 14.0592 152.933 14.2704 152.933 14.5352Z" fill="white"/>
<path d="M123.669 21.1127C123.89 27.1606 118.288 32.9944 110.877 32.7296C104.728 32.5183 98.8517 27.5324 99.1265 20.5831C99.3474 14.5888 104.725 9.12678 111.919 9.39157C118.235 9.65636 123.836 14.6423 123.669 21.1127ZM111.372 14.4282C107.583 14.4282 104.728 17.2395 104.675 20.8986C104.675 24.7719 107.419 27.5296 111.262 27.6366C114.884 27.7437 117.96 24.9324 117.96 21.0592C117.96 17.1888 115.051 14.4282 111.372 14.4282Z" fill="white"/>
<path d="M84.5267 32.7831C79.0919 32.8366 74.5889 29.3887 73.1077 25.2507C71.6265 21.1662 72.1193 17.3465 74.9203 13.8986C77.0075 11.3521 79.7518 9.9211 83.0993 9.54927C86.5573 9.17744 89.6867 9.97462 92.3772 12.0957C94.9573 14.0591 96.4413 16.6563 96.7698 19.7859C97.0983 22.969 96.3846 25.8338 94.3002 28.3267C92.4877 30.5549 90.1286 31.9859 87.2172 32.5183C86.3364 32.6225 85.4046 32.676 84.5267 32.7831ZM84.5267 27.6366C87.9847 27.7943 91.1708 24.9324 91.1708 21.1127C91.117 17.2394 88.4265 14.4281 84.5833 14.4281C80.794 14.4281 77.9393 17.2394 77.8854 20.9521C77.7722 24.9324 81.0121 27.7972 84.5267 27.6366Z" fill="white"/>
<path d="M191.421 31.6141C191.475 31.7212 191.421 31.8789 191.254 31.8789C189.224 31.8789 187.193 31.8789 185.216 31.8789C185.106 31.8789 184.941 31.7212 184.888 31.6141C183.46 29.3324 181.976 27.0536 180.549 24.7719C180.438 24.6141 180.331 24.5071 180.22 24.2958C179.507 25.4085 178.85 26.4169 178.19 27.4789C177.312 28.8592 176.431 30.2367 175.553 31.5634C175.496 31.6705 175.278 31.8282 175.168 31.8282C173.412 31.8282 170.172 31.8817 169.073 31.8817C168.909 31.8817 168.852 31.724 168.909 31.6169C169.512 30.662 170.172 29.6536 170.775 28.6986C172.367 26.2592 173.959 23.7662 175.607 21.3268C175.828 20.955 175.828 20.5324 175.607 20.2141C173.576 17.1381 169.897 11.355 169.019 10.031C168.966 9.92398 169.019 9.76624 169.184 9.76624C170.062 9.76624 170.886 9.76624 171.653 9.76624C172.752 9.76624 173.848 9.81976 174.893 9.76624C175.332 9.76624 175.496 9.92398 175.664 10.2423C177.091 12.524 178.518 14.7522 179.889 17.031C179.946 17.0845 179.999 17.1381 180.056 17.2958C180.22 17.031 180.438 16.7662 180.549 16.5522C181.922 14.431 183.239 12.2564 184.613 10.1352C184.721 9.9775 184.941 9.81694 185.106 9.81694C187.083 9.81694 189.006 9.81694 191.036 9.81694C191.2 9.81694 191.311 9.97469 191.2 10.0817C190.322 11.462 186.479 17.4029 184.556 20.4254C184.338 20.7437 184.338 20.955 184.556 21.2733C186.697 24.2958 190.541 30.2367 191.421 31.6141Z" fill="white"/>
<path d="M63.3341 31.9862H58.3383C58.0636 31.9862 57.8994 31.775 57.8994 31.5609C57.8994 29.3862 57.8994 19.5186 57.8994 15.9665C57.8994 15.1186 56.9648 14.1102 56.033 14.0567C54.8804 13.9496 54.0024 14.3214 53.5068 15.3299C53.453 15.4369 53.2859 15.4876 53.2321 15.4876C52.5184 15.4876 51.7509 15.4876 51.0372 15.4876C50.4878 15.4876 50.0488 15.0623 50.0488 14.5327C50.0488 13.1524 50.0488 11.7214 50.0488 10.3412C50.0488 9.81158 50.4878 9.38623 50.9834 9.38623C51.7509 9.38623 52.4646 9.38623 53.2349 9.38623C53.3454 9.38623 53.5096 9.49327 53.5634 9.5975C54.0024 10.4454 54.7161 10.8707 55.6507 10.8707C56.6391 10.8707 57.3528 10.4454 57.8456 9.5975C57.8994 9.49046 58.0098 9.38623 58.1203 9.38623C60.7003 9.38623 63.337 9.49327 65.8604 10.1299C68.0552 10.713 69.8139 11.9327 71.1847 13.6313C71.3489 13.789 71.4594 14.0031 71.6236 14.1609C71.8984 14.4257 71.7879 14.5862 71.5698 14.744C71.3489 14.9552 71.1847 15.22 70.7457 14.9552C69.4826 14.0538 68.0552 13.8426 66.5174 14.0538C65.7499 14.1609 64.9796 14.3721 64.3763 14.8482C64.0478 15.113 63.8836 15.3778 63.8836 15.8031C63.8836 19.4088 63.8836 29.3299 63.8836 31.5581C63.7731 31.8257 63.5522 31.9862 63.3341 31.9862Z" fill="white"/>
<path d="M126.744 31.4563V10.2394C126.744 9.97465 126.965 9.81409 127.183 9.81409H131.961C132.236 9.81409 132.4 10.0254 132.4 10.2394V26.6817C132.4 26.9465 132.621 27.107 132.839 27.107H143.269C143.544 27.107 143.708 27.3183 143.708 27.5324V31.4056C143.708 31.6704 143.487 31.831 143.269 31.831H127.129C126.965 31.9324 126.744 31.7211 126.744 31.4563Z" fill="white"/>
<path d="M201.933 13.8929C201.933 14.1324 201.814 14.2535 201.571 14.2535H201.339C201.098 14.2535 200.976 14.1324 200.976 13.8929V11.7803L200.299 12.8789C200.245 12.9662 200.189 13.0422 200.135 13.107C200.081 13.1718 199.991 13.2056 199.872 13.2056H199.738C199.62 13.2056 199.529 13.1718 199.475 13.107C199.421 13.0422 199.365 12.9662 199.311 12.8789L198.634 11.7803V13.8929C198.634 14.1324 198.515 14.2535 198.271 14.2535H198.039C197.799 14.2535 197.677 14.1324 197.677 13.8929V10.2563C197.677 10.0169 197.796 9.89575 198.039 9.89575H198.271C198.416 9.89575 198.524 9.94082 198.6 10.0281C198.676 10.1155 198.736 10.1915 198.781 10.2563L199.804 11.8788L200.823 10.2563C200.868 10.1915 200.928 10.1155 201.004 10.0281C201.081 9.94082 201.191 9.89575 201.333 9.89575H201.565C201.806 9.89575 201.928 10.0169 201.928 10.2563V13.8929H201.933ZM193.794 10.2563C193.794 10.0169 193.913 9.89575 194.156 9.89575H196.824C197.065 9.89575 197.187 10.0169 197.187 10.2563V10.4535C197.187 10.6929 197.065 10.8141 196.824 10.8141H195.969V13.8958C195.969 14.1352 195.85 14.2563 195.606 14.2563H195.377C195.136 14.2563 195.015 14.1352 195.015 13.8958V10.8141H194.156C193.916 10.8141 193.794 10.6929 193.794 10.4535V10.2563Z" fill="white"/>
<path d="M31.5126 40.0929H23.8716L31.5126 32.7098V34.4563C32.6624 34.4563 33.6905 34.0197 34.4721 33.2647C35.2113 32.5492 35.7041 31.5183 35.7041 30.4056V12.4619H41.4985V30.445C41.4985 33.1042 40.3884 35.5267 38.5815 37.2732C36.7718 39.0197 34.2654 40.0929 31.5126 40.0929ZM5.8341 12.4647V30.4478C5.8341 31.5605 6.28723 32.5521 7.06605 33.307C7.80523 34.0225 8.87292 34.4985 10.0256 34.4985H16.3949C17.2587 34.4985 17.9554 33.8225 17.9554 32.9915V25.0478V18.8563C17.1341 16.7521 14.1349 16.7521 13.3136 18.8563H10.8497C10.2748 18.8563 9.78202 18.3802 9.78202 17.8253V13.4957C9.78202 12.9408 10.2748 12.4647 10.8497 12.4647H13.3108C14.1321 14.569 17.1313 14.569 17.9526 12.4647C27.4854 12.4647 29.4565 14.1718 32.3339 17.7042C32.3764 17.8619 31.6769 18.6168 31.388 18.4197C29.6633 16.8309 25.265 16.8704 24.1152 18.6985V32.9492V34.4591V35.014C24.1152 37.7915 21.7731 40.0957 18.856 40.0957H9.9831C7.23031 40.0957 4.72392 39.0253 2.91705 37.276C1.11018 35.5267 0 33.107 0 30.4478V12.4647H5.8341Z" fill="white"/>
<path d="M9.9831 0H31.5126C34.2654 0 36.7718 1.07042 38.5787 2.81972C40.3855 4.5662 41.4957 6.98873 41.4957 9.64789H35.6616C35.6616 8.53521 35.2085 7.54366 34.4297 6.78873C33.6905 6.07324 32.6228 5.59718 31.4701 5.59718H9.9831C8.83327 5.59718 7.80523 6.0338 7.02357 6.78873C6.2844 7.50423 5.79162 8.53521 5.79162 9.64789H0C0 6.98873 1.11018 4.5662 2.91705 2.81972C4.72392 1.07042 7.23031 0 9.9831 0Z" fill="#FFCA05"/>
</g>
<defs>
<clipPath id="clip0_102_1642">
<rect width="201.928" height="40" fill="white"/>
</clipPath>
</defs>
</svg>